<mxfile host="app.diagrams.net" modified="2024-01-06T05:24:19.747Z" agent="Mozilla/5.0 (Windows NT 10.0; Win64; x64) AppleWebKit/537.36 (KHTML, like Gecko) Chrome/120.0.0.0 Safari/537.36" etag="GAcOBEN8YX1s61ZDbHX7" version="22.1.17" type="github">
  <diagram name="第 1 页" id="DDbJGOwL7a5N1HXjInsn">
    <mxGraphModel dx="1434" dy="746" grid="0" gridSize="10" guides="1" tooltips="1" connect="1" arrows="1" fold="1" page="1" pageScale="1" pageWidth="827" pageHeight="1169" math="0" shadow="0">
      <root>
        <mxCell id="0" />
        <mxCell id="1" parent="0" />
        <mxCell id="Z7OkOFX8Tv85C6AxSobz-2" value="" style="rounded=1;whiteSpace=wrap;html=1;strokeWidth=2;fillWeight=4;hachureGap=8;hachureAngle=45;fillColor=#CCFFFF;sketch=1;" vertex="1" parent="1">
          <mxGeometry x="45" y="59" width="670" height="465" as="geometry" />
        </mxCell>
        <mxCell id="Z7OkOFX8Tv85C6AxSobz-4" value="" style="rounded=1;whiteSpace=wrap;html=1;strokeWidth=2;fillWeight=4;hachureGap=8;hachureAngle=45;fillColor=#FFFF99;sketch=1;dashed=1;dashPattern=8 8;" vertex="1" parent="1">
          <mxGeometry x="110" y="171" width="532" height="215" as="geometry" />
        </mxCell>
        <mxCell id="Z7OkOFX8Tv85C6AxSobz-13" value="" style="edgeStyle=orthogonalEdgeStyle;rounded=0;orthogonalLoop=1;jettySize=auto;html=1;" edge="1" parent="1" source="Z7OkOFX8Tv85C6AxSobz-3" target="Z7OkOFX8Tv85C6AxSobz-5">
          <mxGeometry relative="1" as="geometry" />
        </mxCell>
        <mxCell id="Z7OkOFX8Tv85C6AxSobz-3" value="&lt;font style=&quot;font-size: 18px;&quot; face=&quot;Comic Sans MS&quot;&gt;验证&lt;/font&gt;" style="rounded=1;whiteSpace=wrap;html=1;strokeWidth=2;fillWeight=4;hachureGap=8;hachureAngle=45;fillColor=#66FFFF;sketch=1;gradientColor=none;" vertex="1" parent="1">
          <mxGeometry x="138" y="252" width="93" height="53" as="geometry" />
        </mxCell>
        <mxCell id="Z7OkOFX8Tv85C6AxSobz-14" value="" style="edgeStyle=orthogonalEdgeStyle;rounded=0;orthogonalLoop=1;jettySize=auto;html=1;" edge="1" parent="1" source="Z7OkOFX8Tv85C6AxSobz-5" target="Z7OkOFX8Tv85C6AxSobz-6">
          <mxGeometry relative="1" as="geometry" />
        </mxCell>
        <mxCell id="Z7OkOFX8Tv85C6AxSobz-5" value="&lt;font style=&quot;font-size: 18px;&quot; face=&quot;Comic Sans MS&quot;&gt;准备&lt;/font&gt;" style="rounded=1;whiteSpace=wrap;html=1;strokeWidth=2;fillWeight=4;hachureGap=8;hachureAngle=45;fillColor=#66FFFF;sketch=1;gradientColor=none;" vertex="1" parent="1">
          <mxGeometry x="329.5" y="252" width="93" height="53" as="geometry" />
        </mxCell>
        <mxCell id="Z7OkOFX8Tv85C6AxSobz-6" value="&lt;font style=&quot;font-size: 18px;&quot; face=&quot;Comic Sans MS&quot;&gt;解析&lt;/font&gt;" style="rounded=1;whiteSpace=wrap;html=1;strokeWidth=2;fillWeight=4;hachureGap=8;hachureAngle=45;fillColor=#66FFFF;sketch=1;gradientColor=none;" vertex="1" parent="1">
          <mxGeometry x="521" y="252" width="93" height="53" as="geometry" />
        </mxCell>
        <mxCell id="Z7OkOFX8Tv85C6AxSobz-7" value="&lt;font style=&quot;font-size: 18px;&quot; face=&quot;Comic Sans MS&quot;&gt;加载&lt;/font&gt;" style="rounded=1;whiteSpace=wrap;html=1;strokeWidth=2;fillWeight=4;hachureGap=8;hachureAngle=45;fillColor=#66FFFF;sketch=1;gradientColor=none;" vertex="1" parent="1">
          <mxGeometry x="138" y="429" width="93" height="53" as="geometry" />
        </mxCell>
        <mxCell id="Z7OkOFX8Tv85C6AxSobz-8" value="&lt;font style=&quot;font-size: 18px;&quot; face=&quot;Comic Sans MS&quot;&gt;初始化&lt;/font&gt;" style="rounded=1;whiteSpace=wrap;html=1;strokeWidth=2;fillWeight=4;hachureGap=8;hachureAngle=45;fillColor=#66FFFF;sketch=1;gradientColor=none;" vertex="1" parent="1">
          <mxGeometry x="521" y="429" width="93" height="53" as="geometry" />
        </mxCell>
        <mxCell id="Z7OkOFX8Tv85C6AxSobz-11" value="" style="endArrow=classic;html=1;rounded=0;exitX=0.5;exitY=0;exitDx=0;exitDy=0;entryX=0.14;entryY=0.651;entryDx=0;entryDy=0;entryPerimeter=0;" edge="1" parent="1">
          <mxGeometry width="50" height="50" relative="1" as="geometry">
            <mxPoint x="184.02" y="425.04" as="sourcePoint" />
            <mxPoint x="184.00000000000003" y="307.00499999999994" as="targetPoint" />
          </mxGeometry>
        </mxCell>
        <mxCell id="Z7OkOFX8Tv85C6AxSobz-16" value="" style="endArrow=classic;html=1;rounded=0;exitX=0.5;exitY=1;exitDx=0;exitDy=0;entryX=0.5;entryY=0;entryDx=0;entryDy=0;" edge="1" parent="1" source="Z7OkOFX8Tv85C6AxSobz-6" target="Z7OkOFX8Tv85C6AxSobz-8">
          <mxGeometry width="50" height="50" relative="1" as="geometry">
            <mxPoint x="387" y="394" as="sourcePoint" />
            <mxPoint x="437" y="344" as="targetPoint" />
          </mxGeometry>
        </mxCell>
        <mxCell id="Z7OkOFX8Tv85C6AxSobz-21" value="连接/链接" style="text;strokeColor=none;fillColor=none;html=1;fontSize=24;fontStyle=1;verticalAlign=middle;align=center;" vertex="1" parent="1">
          <mxGeometry x="326" y="193" width="100" height="40" as="geometry" />
        </mxCell>
        <mxCell id="Z7OkOFX8Tv85C6AxSobz-22" value="JVM类加载过程" style="text;strokeColor=none;fillColor=none;html=1;fontSize=24;fontStyle=1;verticalAlign=middle;align=center;" vertex="1" parent="1">
          <mxGeometry x="323" y="99" width="100" height="40" as="geometry" />
        </mxCell>
      </root>
    </mxGraphModel>
  </diagram>
</mxfile>
